<svg xmlns="http://www.w3.org/2000/svg" viewBox="0 0 125.5 78.4"><path d="M125.4 74.2c0 2.3-1.9 4.2-4.2 4.2H4.2c-2.3 0-4.2-1.9-4.2-4.2v-70C0 1.9 1.9 0 4.2 0h117.1c2.3 0 4.2 1.9 4.2 4.2l-.1 70z" fill="#fafafa"/><path d="M11.3 30.3l-2.4-5.9-2.4 5.9m58-2.4c-.5.3-1.1.3-1.7.3h-4.3v-3.3h4.3c.6 0 1.3 0 1.7.3.5.2.7.7.7 1.3 0 .7-.2 1.2-.7 1.4zm30.6 2.4l-2.4-5.9-2.4 5.9h4.8zm-57 6.3h-3.6V25l-5.1 11.6h-3.1L21.2 25v11.6H14l-1.4-3.3H5.2l-1.4 3.3H0l6.3-14.8h5.2l6 14v-14h5.8l4.6 10 4.2-10H38l.1 14.8zm14.4 0H40.7V21.9h11.8V25h-8.3v2.7h8.1v3h-8.1v2.9h8.3v3zm16.6-10.7c0 2.4-1.6 3.6-2.5 3.9.8.3 1.4.8 1.7 1.2.5.7.6 1.4.6 2.7v2.9h-3.6v-1.9c0-.9.1-2.2-.6-2.9-.5-.5-1.3-.6-2.6-.6h-3.8v5.4h-3.5V21.9h8.1c1.8 0 3.1 0 4.3.7 1.2.6 1.9 1.6 1.9 3.3zm5.7 10.7h-3.6V21.9h3.6v14.7zm41.7 0h-5l-6.7-11.1v11.1h-7.2l-1.4-3.3h-7.3l-1.3 3.3h-4.1c-1.7 0-3.9-.4-5.1-1.6-1.2-1.3-1.9-3-1.9-5.6 0-2.2.4-4.2 1.9-5.8 1.1-1.2 2.9-1.7 5.4-1.7h3.4V25h-3.3c-1.3 0-2 .2-2.7.9-.6.6-1 1.8-1 3.3 0 1.6.3 2.7 1 3.5.5.6 1.5.8 2.5.8h1.6l5-11.6h5.3l6 14v-14h5.4l6.2 10.3V21.9h3.6l-.3 14.7zM0 39.5h6l1.4-3.3h3l1.4 3.3h11.9V37l1.1 2.5H31l1.1-2.6v2.5h29.5V34h.6c.4 0 .5.1.5.7v4.7h15.2v-1.3c1.2.7 3.1 1.3 5.7 1.3H90l1.4-3.3h3l1.3 3.3h12.4v-3.1l1.9 3.1h9.9V18.9h-9.8v2.4l-1.4-2.4H98.4v2.4l-1.3-2.4H83.6c-2.3 0-4.3.3-5.9 1.2v-1.2h-9.4v1.2c-1-.9-2.4-1.2-4-1.2H30.1l-2.3 5.3-2.4-5.3H14.7v2.4l-1.2-2.4H4.3L0 28.7v10.8zm125.5 9.3h-6.4c-.6 0-1.1 0-1.4.3-.4.2-.5.6-.5 1.1 0 .6.3.9.8 1.1.4.1.8.2 1.4.2l1.9.1c1.9 0 3.2.4 4 1.2.1.1.2.2.3.4m-.1 5.3c-.9 1.3-2.5 1.9-4.8 1.9h-6.8v-3.2h6.8c.7 0 1.1-.1 1.4-.4.2-.2.4-.6.4-1s-.2-.8-.4-1c-.3-.2-.6-.3-1.2-.3-3.3-.1-7.4.1-7.4-4.6 0-2.1 1.4-4.4 5.1-4.4h7v-2.9H119c-2 0-3.4.5-4.4 1.2v-1.2h-9.7c-1.5 0-3.4.4-4.2 1.2v-1.2H83.4v1.2c-1.4-1-3.7-1.2-4.8-1.2H67.3v1.2c-1.1-1.1-3.5-1.2-5-1.2H49.6l-2.9 3.2-2.7-3.1H25v20.6h18.7l3-3.2 2.8 3.2H61v-4.8h1.1c1.5 0 3.3 0 4.9-.7v5.6h9.5V58h.5c.6 0 .6 0 .6.6v4.8h28.8c1.8 0 3.7-.5 4.8-1.3v1.3h9.1c1.9 0 3.8-.3 5.2-.9v-4zm-14.1-5.9c.7.7 1.1 1.6 1.1 3.1 0 3.2-2 4.7-5.5 4.7h-6.9v-3.2h6.8c.7 0 1.1-.1 1.4-.4.2-.2.4-.6.4-1s-.2-.8-.4-1c-.3-.2-.6-.3-1.3-.3-3.3-.1-7.4.1-7.4-4.6 0-2.1 1.3-4.4 5-4.4h7.1v3.1h-6.5c-.6 0-1.1 0-1.4.3-.4.2-.5.6-.5 1.1 0 .6.3.9.8 1.1.4.1.8.2 1.4.2l1.9.1c1.9.1 3.2.4 4 1.2zm-31.8-.9c-.5.3-1.1.3-1.7.3h-4.3v-3.3h4.3c.6 0 1.3 0 1.7.3.5.2.7.7.7 1.3s-.2 1.1-.7 1.4zm2.1 1.8c.8.3 1.4.8 1.7 1.2.5.7.6 1.4.6 2.7v2.9h-3.5v-1.8c0-.9.1-2.2-.6-2.9-.5-.5-1.3-.7-2.6-.7h-3.8v5.4H70V45.6h8.1c1.8 0 3.1.1 4.2.7 1.1.7 1.8 1.6 1.8 3.3.1 2.4-1.4 3.6-2.4 3.9zm4.5-7.9H98v3.1h-8.3v2.7h8.1v3h-8.1v2.9H98v3.1H86.2V45.6zm-23.8 6.8h-4.6v-3.8h4.6c1.3 0 2.2.5 2.2 1.8 0 1.4-.9 2-2.2 2zM54.3 59l-5.4-6 5.4-5.8V59zm-14-1.7h-8.7v-2.9h7.7v-3h-7.7v-2.7h8.8l3.9 4.3-4 4.3zm28.1-6.8c0 4.1-3.1 4.9-6.1 4.9h-4.4v5H51l-4.3-4.9-4.5 4.9h-14V45.6h14.2l4.3 4.8 4.5-4.8h11.3c2.7 0 5.9.8 5.9 4.9z" fill="#2e78bf"/></svg>