<svg version="1.1" id="Layer_1" xmlns="http://www.w3.org/2000/svg" x="0" y="0" viewBox="0 0 314.8 170" xml:space="preserve"><style>.st0{fill:#fff}</style><path class="st0" d="M57.6 26.1c-27 0-49 22-49 49s22 49 49 49h204.1c27 0 49-22 49-49s-22-49-49-49H57.6z"/><path d="M261.6 128.2h-204c-29.3 0-53.1-23.8-53.1-53.1S28.3 22 57.6 22h204.1c29.3 0 53.1 23.8 53.1 53.1s-23.9 53.1-53.2 53.1M57.6 26.1c-27 0-49 22-49 49s22 49 49 49h204.1c27 0 49-22 49-49s-22-49-49-49H57.6z" fill="#d0d0d0"/><path d="M237.2 45.3c-7.9 0-14.3 6.4-14.3 14.4 0 7.9 6.4 14.3 14.3 14.3s14.3-6.4 14.3-14.3-6.4-14.4-14.3-14.4m0 21.7c-4.1 0-7.4-3.3-7.4-7.4 0-4.1 3.3-7.4 7.4-7.4 4.1 0 7.4 3.3 7.4 7.4-.1 4.1-3.4 7.4-7.4 7.4m-65.8-21.7c-7.9 0-14.3 6.4-14.3 14.4 0 7.9 6.4 14.3 14.3 14.3s14.4-6.4 14.4-14.3c-.1-7.9-6.5-14.4-14.4-14.4m0 21.7c-4.1 0-7.4-3.3-7.4-7.4 0-4.1 3.3-7.4 7.4-7.4 4.1 0 7.4 3.3 7.4 7.4-.1 4.1-3.4 7.4-7.4 7.4m50.5.4c-.9.3-2.3.5-2.8.5-2.5 0-3-.8-3-3.2V51.5h5.9V46h-5.9v-7.8h-6.6l-1.4 7.8h-5c-3.8 0-6.6 2.3-8.4 5.9l-2.3-5.9h-4.7v27.5h8.1v-12c0-6 3.6-9.9 7.8-10h4.4v13.7c0 6.4 3.3 8.8 8.7 8.8 2.8 0 4.9-.6 6.2-1l-1-5.6zm39.4-12.7v18.8h-7.8V46h4.7l1.6 4.2m0 0c2.4-2.8 5.7-4.9 9.5-4.9 6.6 0 9.2 5.2 9.2 10.1v18.1h-8.1V55.6c0-2.4-2-3.6-4.1-3.6-2.3 0-3.7 1.3-5 2.7M125.5 36h9l12.4 23.6V36h7.4v37.5h-8.1l-13.3-25.9v25.9h-7.4z"/><path d="M302.4 21.9v1.4h-1.9v6.6h-1.6v-6.6H297v-1.4zm1.1 8v-8h2.1l1.4 5.2 1.4-5.2h2.1v8h-1.3v-6.2l-1.6 6.2h-1.2l-1.6-6.2v6.2zm-180.3 76.8l1.9-2.9c1.5 1.1 3.8 2.2 6.6 2.2 2.7 0 4.4-1.2 4.4-3.4 0-2.4-2.1-3.1-5.6-4.3-3.1-1.1-6.2-2.7-6.2-7.1 0-4.1 3.3-6.4 7.6-6.4 2.9 0 5.1.6 6.8 1.6l-1.5 3.1c-1.4-.8-3.2-1.3-5.2-1.3-2.4 0-3.9.9-3.9 2.9 0 2.3 1.7 2.8 4.9 3.9 3.3 1.1 7 2.6 7 7.5 0 4.1-2.9 6.8-8.2 6.8-4 .1-6.9-1.2-8.6-2.6m23.9-21.4h14.1v3.3h-10.1v6.5h8v3.2h-8v7.5h10.8v3.3h-14.8zm20.5 11.9c0-7 3.3-12.3 10-12.3 3 0 5.3.9 7 2.9l-2.4 2.7c-1.4-1.4-2.6-2.1-4.6-2.1-3.9 0-5.7 3.2-5.7 9.1 0 5.5 1.9 8.3 5.7 8.3 2.1 0 3.6-1.1 4.9-2.5l2.4 2.6c-1.7 2-3.9 3.4-7.3 3.4-6.8.1-10-5.1-10-12.1m24 2.8V85.3h4.1v15.4c0 3.3.8 5.4 4.3 5.4 3.4 0 4.3-2.1 4.3-5.4V85.3h4.1V100c0 5.9-2.3 9.4-8.4 9.4-6.1 0-8.4-3.5-8.4-9.4m41.6 9.1h-4.4L224.2 99h-3.8v10.1h-4V85.3h7.8c4.8 0 8.6 1.7 8.6 6.9 0 3.6-2.1 5.4-4.5 6.2l4.9 10.7zM224 95.9c3 0 4.6-1 4.6-3.7 0-2.6-1.6-3.6-4.3-3.6h-3.8v7.3h3.5zm16.1-10.6h14.1v3.3h-10.1v6.5h8v3.2h-8v7.5h10.7v3.3h-14.7zm21.6 0h5.9c7.8 0 11.5 4.2 11.5 11.8 0 7.8-3.8 12-11.3 12h-6.2V85.3zm5.7 20.5c5.6 0 7.5-2.6 7.5-8.7 0-5.4-1.5-8.5-7-8.5h-2.2v17.2h1.7z" fill="#b2b2b2"/><path d="M57.3 132.4C25.7 132.4 0 106.7 0 75.1c0-31.6 25.7-57.3 57.3-57.3 31.6 0 57.3 25.7 57.3 57.3 0 31.6-25.7 57.3-57.3 57.3m0-96.5C46.8 35.9 37 40 29.6 47.4c-7.4 7.4-11.5 17.2-11.5 27.7s4.1 20.3 11.5 27.7c7.4 7.4 17.2 11.5 27.7 11.5s20.3-4.1 27.7-11.5c7.4-7.4 11.5-17.2 11.5-27.7S92.4 54.8 85 47.4c-7.4-7.5-17.2-11.5-27.7-11.5m62.5-27h4.5v4.5h-4.5zm0-8.9h4.5v4.5h-4.5zm-12.6 13.3h4.2v4.4h-4.2z" fill="#fdc300"/><path d="M98.9 21.9h4.2v4.2h-4.2zm12.5-4.2h4.7v4.2h-4.7zm-16.7.2h4.2v4h-4.2zm12.5 4h4.2v4.2h-4.2zm8.2-17.4h4.4v4.4h-4.4zm-8.2 4.4h8.2v4.4h-8.2zm-4.1 4.4h4.1v8.6h-4.1zm0 12.8v4.2h-4.2v-4.2h-7v3h-3.7v3.7h4.2V37h-4.2v-4.2h-4.4v6.5h-4.2v4.2h-2.8v4.2h-3.1C70.3 52.9 61.6 68.8 59 75.3 49.6 62.2 42.3 57 36.5 55.1c-3.1-.9-6.8 2.4-1.7 7.8C46.7 76 50.4 86.7 54 95.3c1.9 4.5 10.4 5.2 12.1.6 3.6-9.8 8.9-20.7 15.2-29.7v-4.7h3.3v-4.2h3.5v-4.9h4.2v-4.7h-4.2v-4.3h4.2v4.3h4.1v-4.2h3.3v-5.1h3.7V35h3.6v-8.9h-3.9z"/><path class="st0" d="M22.3 152h3.1v2.3c1-1.4 2.4-2.6 4.6-2.6 3.2 0 6.4 2.6 6.4 7.1v.1c0 4.5-3.1 7.1-6.4 7.1-2.3 0-3.7-1.1-4.6-2.4v6.3h-3.1V152zm10.9 6.9c0-2.7-1.8-4.4-3.9-4.4s-4 1.8-4 4.4v.1c0 2.6 1.9 4.4 4 4.4 2.2-.1 3.9-1.8 3.9-4.5m5.8.1c0-4 3.1-7.2 7.3-7.2s7.3 3.2 7.3 7.1v.1c0 3.9-3.1 7.1-7.3 7.1-4.2-.1-7.3-3.2-7.3-7.1m11.4 0c0-2.5-1.7-4.5-4.2-4.5s-4.1 2-4.1 4.4v.1c0 2.4 1.7 4.4 4.2 4.4 2.5-.1 4.1-2.1 4.1-4.4m4.7-7h3.2l2.8 9.4 3-9.4h2.7l3 9.4 2.8-9.4h3.2l-4.5 13.8h-2.8l-3.1-9.3-3.1 9.3h-2.8zm22.3 6.9c0-4 2.8-7.2 6.7-7.2 4.4 0 6.6 3.4 6.6 7.4 0 .3 0 .6-.1.9H80.5c.3 2.2 1.9 3.5 3.9 3.5 1.5 0 2.6-.6 3.7-1.6l1.8 1.6c-1.3 1.6-3.1 2.6-5.6 2.6-3.9-.1-6.9-2.9-6.9-7.2m10.1-1c-.2-2-1.4-3.6-3.5-3.6-1.9 0-3.3 1.5-3.6 3.6h7.1zm6.4-5.9H97v3.1c.9-2 2.4-3.4 4.8-3.3v3.3h-.2c-2.8 0-4.7 1.8-4.7 5.4v5.2h-3.1V152zm9.8 6.9c0-4 2.8-7.2 6.7-7.2 4.4 0 6.6 3.4 6.6 7.4 0 .3 0 .6-.1.9h-10.1c.3 2.2 1.9 3.5 3.9 3.5 1.5 0 2.6-.6 3.7-1.6l1.8 1.6c-1.3 1.6-3.1 2.6-5.6 2.6-3.8-.1-6.9-2.9-6.9-7.2m10.2-1c-.2-2-1.4-3.6-3.5-3.6-1.9 0-3.3 1.5-3.6 3.6h7.1zm5.6 1c0-4.6 3.1-7.2 6.4-7.2 2.3 0 3.7 1.1 4.7 2.4v-7.4h3.1v18.9h-3.1v-2.3c-1 1.4-2.4 2.6-4.7 2.6-3.2.1-6.4-2.4-6.4-7m11.1 0c0-2.7-1.9-4.4-4-4.4-2.2 0-3.9 1.7-3.9 4.4v.1c0 2.6 1.8 4.4 3.9 4.4 2.1-.1 4-1.9 4-4.5m17.9 4.7v2.1h-3.1v-18.9h3.1v7.5c1-1.4 2.4-2.6 4.6-2.6 3.2 0 6.4 2.6 6.4 7.1v.1c0 4.5-3.1 7.1-6.4 7.1-2.2 0-3.6-1.1-4.6-2.4m7.8-4.7c0-2.7-1.8-4.4-3.9-4.4-2.1 0-4 1.8-4 4.4v.1c0 2.6 1.9 4.4 4 4.4 2.2-.1 3.9-1.8 3.9-4.5m5.4 10.2l1.1-2.3c.6.3 1.2.5 1.8.5.9 0 1.4-.4 1.9-1.6l-5.7-13.7h3.3l3.9 10.2 3.6-10.2h3.3l-5.4 14.1c-1.1 2.8-2.3 3.8-4.5 3.8-1.4.1-2.4-.2-3.3-.8m22.5-21.5h3.5l5.5 13.9 5.4-13.9h3.4l-7.5 18.3h-2.8zm18.5 11.3c0-4 2.8-7.2 6.7-7.2 4.4 0 6.6 3.4 6.6 7.4 0 .3 0 .6-.1.9h-10.1c.3 2.2 1.9 3.5 3.9 3.5 1.5 0 2.6-.6 3.7-1.6l1.8 1.6c-1.3 1.6-3.1 2.6-5.6 2.6-3.8-.1-6.9-2.9-6.9-7.2m10.1-1c-.2-2-1.4-3.6-3.5-3.6-1.9 0-3.3 1.5-3.6 3.6h7.1zm6.4-5.9h3.1v3.1c.9-2 2.4-3.4 4.9-3.3v3.3h-.2c-2.8 0-4.7 1.8-4.7 5.4v5.2h-3.1V152zm10.6-5h3.4v3h-3.4v-3zm.1 5h3.1v13.7h-3.1V152zm6.4 11.1l1.9-2.3c1.7 1.5 3.5 2.4 5.7 2.4 2 0 3.2-.9 3.2-2.3v-.1c0-1.3-.7-2-4.1-2.8-3.9-.9-6-2.1-6-5.4v-.1c0-3.1 2.6-5.3 6.2-5.3 2.6 0 4.7.8 6.6 2.3l-1.7 2.4c-1.6-1.2-3.3-1.9-4.9-1.9-1.9 0-3 1-3 2.2v.1c0 1.4.8 2 4.3 2.9 3.8.9 5.8 2.3 5.8 5.3 0 3.4-2.7 5.4-6.5 5.4-2.7.1-5.3-.9-7.5-2.8m17.5-16.1h3.4v3h-3.4v-3zm.1 5h3.1v13.7h-3.1V152zm7.1 16.3l1.2-2.4c1.5.9 3 1.4 4.9 1.4 2.8 0 4.3-1.4 4.3-4.2V162c-1.1 1.5-2.6 2.5-4.8 2.5-3.2 0-6.2-2.4-6.2-6.4v-.1c0-4 3-6.4 6.2-6.4 2.3 0 3.7 1.1 4.8 2.3v-2h3.1v10.9c0 2.3-.6 4-1.7 5.2-1.2 1.2-3.2 1.8-5.6 1.8-2.3.1-4.4-.4-6.2-1.5m10.4-10.1c0-2.3-1.8-3.8-4-3.8s-3.9 1.5-3.9 3.8v.1c0 2.3 1.7 3.8 3.9 3.8 2.2-.1 4-1.7 4-3.9m7.2-6.2h3.1v2.1c.9-1.3 2.2-2.4 4.3-2.4 3.1 0 4.9 2.1 4.9 5.3v8.7h-3.1V158c0-2.1-1.1-3.3-2.9-3.3-1.8 0-3.1 1.3-3.1 3.4v7.7h-3.1V152z"/></svg>