<svg version="1.1" id="Layer_1" xmlns="http://www.w3.org/2000/svg" x="0" y="0" viewBox="0 0 125.4 78.4" xml:space="preserve"><style>.st1{fill:#283b82}.st2{fill:#469bdb}</style><path d="M125.4 74.2c0 2.3-1.9 4.2-4.2 4.2H4.2c-2.3 0-4.2-1.9-4.2-4.2v-70C0 1.9 1.9 0 4.2 0h117.1c2.3 0 4.2 1.9 4.2 4.2l-.1 70z" fill="#fafafa"/><g id="g10" transform="matrix(1.25 0 0 -1.25 0 140.375)"><g id="g12" transform="scale(.1)"><path id="path14" class="st1" d="M159.2 918.7H89.5c-4.8 0-8.8-3.5-9.6-8.2L51.7 731.8c-.6-3.5 2.2-6.7 5.7-6.7h33.3c4.8 0 8.8 3.5 9.6 8.2l7.6 48.2c.7 4.7 4.8 8.2 9.6 8.2h22.1c45.9 0 72.4 22.2 79.3 66.2 3.1 19.3.1 34.4-8.9 45-9.9 11.7-27.5 17.8-50.8 17.8zm8-65.3c-3.8-25-22.9-25-41.4-25h-10.5l7.4 46.7c.4 2.8 2.9 4.9 5.7 4.9h4.8c12.6 0 24.5 0 30.6-7.2 3.7-4.2 4.8-10.6 3.4-19.4"/><path id="path16" class="st1" d="M367.5 854.2h-33.4c-2.8 0-5.3-2.1-5.7-4.9l-1.5-9.3-2.3 3.4c-7.2 10.5-23.3 14-39.4 14-36.9 0-68.4-27.9-74.5-67.1-3.2-19.5 1.3-38.2 12.4-51.3 10.2-12 24.7-17 42-17 29.7 0 46.2 19.1 46.2 19.1l-1.5-9.3c-.6-3.5 2.2-6.7 5.7-6.7h30.1c4.8 0 8.8 3.5 9.6 8.2l18 114.2c.6 3.5-2.1 6.7-5.7 6.7zM321 789.3c-3.2-19.1-18.4-31.9-37.7-31.9-9.7 0-17.4 3.1-22.4 9-4.9 5.8-6.8 14.2-5.2 23.4 3 18.9 18.4 32.1 37.4 32.1 9.5 0 17.2-3.1 22.3-9.1 5-5.9 7-14.3 5.6-23.5"/><path id="path18" class="st1" d="M545.3 854.2h-33.5c-3.2 0-6.2-1.6-8-4.3l-46.3-68.1-19.6 65.5c-1.2 4.1-5 6.9-9.3 6.9h-33c-4 0-6.8-3.9-5.5-7.7L427 738.1l-34.7-49c-2.7-3.9 0-9.2 4.7-9.2h33.5c3.2 0 6.2 1.5 8 4.2l111.5 161c2.7 3.9 0 9.1-4.7 9.1"/><path id="path20" class="st2" d="M656.3 918.7h-69.7c-4.8 0-8.8-3.5-9.6-8.2l-28.2-178.7c-.6-3.5 2.2-6.7 5.7-6.7h35.8c3.3 0 6.2 2.4 6.7 5.7l8 50.7c.7 4.7 4.8 8.2 9.6 8.2h22.1c45.9 0 72.4 22.2 79.3 66.2 3.1 19.3.1 34.4-8.9 45-9.9 11.7-27.5 17.8-50.8 17.8zm8-65.3c-3.8-25-22.9-25-41.4-25h-10.5l7.4 46.7c.4 2.8 2.9 4.9 5.7 4.9h4.8c12.6 0 24.5 0 30.6-7.2 3.7-4.2 4.8-10.6 3.4-19.4"/><path id="path22" class="st2" d="M864.6 854.2h-33.4c-2.9 0-5.3-2.1-5.7-4.9L824 840l-2.3 3.4c-7.2 10.5-23.3 14-39.4 14-36.9 0-68.4-27.9-74.5-67.1-3.2-19.5 1.3-38.2 12.4-51.3 10.2-12 24.7-17 42-17 29.7 0 46.2 19.1 46.2 19.1l-1.5-9.3c-.6-3.5 2.2-6.7 5.7-6.7h30.1c4.8 0 8.8 3.5 9.6 8.2l18 114.2c.6 3.5-2.1 6.7-5.7 6.7zm-46.5-64.9c-3.2-19.1-18.4-31.9-37.7-31.9-9.7 0-17.4 3.1-22.4 9-4.9 5.8-6.8 14.2-5.2 23.4 3 18.9 18.4 32.1 37.4 32.1 9.5 0 17.2-3.1 22.3-9.1 5.1-5.9 7.1-14.3 5.6-23.5"/><path id="path24" class="st2" d="M904 913.8l-28.6-182c-.6-3.5 2.2-6.7 5.7-6.7h28.8c4.8 0 8.8 3.5 9.6 8.2L947.6 912c.6 3.5-2.2 6.7-5.7 6.7h-32.2c-2.8 0-5.3-2.1-5.7-4.9"/></g></g></svg>