<svg xmlns="http://www.w3.org/2000/svg" viewBox="0 0 125.4 78.4"><path d="M125.4 74.2c0 2.3-1.9 4.2-4.2 4.2H4.2c-2.3 0-4.2-1.9-4.2-4.2v-70C0 1.9 1.9 0 4.2 0h117.1c2.3 0 4.2 1.9 4.2 4.2v70z" fill="#fafafa"/><path d="M55.5 56.3h-8.9l5.5-34.2H61zM39.1 22.1l-8.5 23.5-1-5.1-3-15.4s-.4-3.1-4.2-3.1h-14l-.2.6s4.3.9 9.3 3.9l7.7 29.7h9.3l14.1-34.1h-9.5zM109 56.3h8.2l-7.1-34.1H103c-3.3 0-4.1 2.5-4.1 2.5L85.6 56.3h9.3l1.9-5.1H108l1 5.1zm-9.8-12.1l4.7-12.8 2.6 12.8h-7.3zM86.3 30.3l1.3-7.3s-3.9-1.5-8-1.5c-4.4 0-14.9 1.9-14.9 11.3 0 8.8 12.3 8.9 12.3 13.6 0 4.6-11 3.8-14.7.9L61 55s4 1.9 10 1.9c6.1 0 15.2-3.1 15.2-11.7 0-8.9-12.4-9.7-12.4-13.6 0-3.8 8.7-3.3 12.5-1.3z" fill="#1166b0"/><path d="M29.6 40.6l-3-15.4s-.4-3.1-4.2-3.1h-14l-.2.6s6.7 1.4 13.2 6.6c6.2 5 8.2 11.3 8.2 11.3z" fill="#f7a536"/></svg>