<svg data-name="Layer 1" xmlns="http://www.w3.org/2000/svg" viewBox="0 0 516.4 132.8"><path d="M125.88 23.01l5.85-23L120.07 0l-5.85 23.01h11.66M106.8 52.24h11.65l5.85-23.01h-11.66l-5.84 23.01zm-7.45 29.23h11.67l5.85-23.01h-11.66l-5.86 23.01z" fill="#d8d8d6" fill-rule="evenodd"/><path d="M114.75.02L0 0v4.85L19.17 23l89.74.01L114.75.02zM60.61 58.46v3.79l20.33 19.21 13.11.01 5.85-23-39.29-.01zm46.72-29.22l-77.68-.01v3.71l20.39 19.29 51.44.01 5.85-23z" fill="#0091cd" fill-rule="evenodd"/><path d="M516.4 17.16l-2 7.37c-.89 3.38-2.53 4.68-6.49 4.68h-11.43c-5.15 0-6.78.34-8.19 1.64a6.83 6.83 0 00-1.61 4.4c-.05 1.86.76 2.57 3.66 3.49l11.59 3.44c7.9 2.34 10.28 4.79 10.16 10.86s-2.43 15.71-5.88 20.14-7.58 6.19-14.24 6.19h-28.23a2.62 2.62 0 01-2.74-3.31l3.59-14h1.61c.89 3.16 3 4.09 9.27 4.09h11c4.07 0 6.06-.58 7.25-2.1a8.27 8.27 0 002-5.14c.05-2.56-.88-3.26-6.46-4.78l-10.69-2.93c-6.16-1.63-8.9-4.77-8.8-10a37.81 37.81 0 014.93-16.46c3.24-5.49 8-7.58 16.6-7.58zm-274.75-.58c-12.84 0-20 2.8-25.75 10s-11.17 24.9-11.36 36.22c-.11 6.89 2.46 12.27 7.22 14.71C215 79.14 220.12 80 228.65 80c9.2 0 14.92-.82 17.89-2.45 2.25-1.29 2.72-2.22 4.34-8.51l2.25-8.54h-1.4c-3.79 4.44-8.16 6.28-18.77 6.28-5.26 0-8.29-.47-9.66-1.52-1.86-1.16-2.65-3-2.6-5.47a25.41 25.41 0 01.53-3.74l1.14-4.88h26.84c5.84 0 7.6-.59 8.81-2.8 1.57-3.15 3.24-11 3.31-15.77.21-11.2-5.67-16-19.68-16m4.95 24.27h-21.38c2.76-9.92 6-13 13.91-13 5.93 0 8.69 2.1 8.62 6.65a24.62 24.62 0 01-1.15 6.31m193-24.27c-12.84 0-20 2.8-25.75 10S402.68 51.48 402.5 62.8c-.12 6.89 2.44 12.27 7.2 14.71 3.3 1.63 8.37 2.49 16.9 2.49 9.2 0 14.91-.82 17.89-2.45 2.25-1.29 2.71-2.22 4.33-8.51l2.25-8.54h-1.39c-3.8 4.44-8.17 6.28-18.77 6.28-5.27 0-8.3-.47-9.67-1.52-1.85-1.16-2.64-3-2.6-5.47a27 27 0 01.54-3.74l1.13-4.88h26.85c5.83 0 7.6-.59 8.8-2.8 1.58-3.15 3.25-11 3.32-15.77.21-11.2-5.68-16-19.68-16m4.94 24.27h-21.38c2.77-9.92 6-13 13.91-13 5.94 0 8.7 2.1 8.63 6.65a24.75 24.75 0 01-1.16 6.31M313.72 17.16l-2.13 8.17c-.86 3.38-2.42 4.42-7.07 4.42h-6.08c-6.64 0-8.67 1.76-10.54 9.33l-8.64 33.18a20.11 20.11 0 00-.65 3.38c0 1.28.67 2 2.06 2.46l-.26 1.27h-15.3a2.62 2.62 0 01-2.71-3.31l13.77-53.89a4.69 4.69 0 00.25-1.28c0-1.29-.67-2-2.08-2.45l.4-1.28h15.16a2.63 2.63 0 012.71 3.3L291.15 26l4.54-6c1.91-2.67 2.26-2.79 6.13-2.79zM207 4.82s-11.76 45.8-17.15 66.7c-.56 2.37-1.46 5.4 1.53 6.32-.16.52-.32 1-.49 1.52H173.8a2.63 2.63 0 01-2.71-3.31l8.66-33.46h-23.37L149 71.52a18.83 18.83 0 00-.66 3.53 2.68 2.68 0 002 2.79c-.12.52-.23 1-.37 1.52H133a2.63 2.63 0 01-2.71-3.31S142 30.25 147.42 9.32c.52-2.36 1.47-5.24-1.54-6.19.11-.54.26-1.09.37-1.62h17.2a2.62 2.62 0 012.71 3.31l-6.51 25.28h23.22l5.39-20.78a19.38 19.38 0 00.63-3.5 2.57 2.57 0 00-2.15-2.69c.12-.54.25-1.09.37-1.62h17.18A2.63 2.63 0 01207 4.82m180.25 11.84h-8.15c-4.29 0-6.56.92-9.36 5.13l-3.05 4.78c.34-4.87-2.35-9.91-10.58-9.91h-7.58c-6.36 0-7.9 2.69-9.48 4.6L335.44 26l1.48-5.56a2.63 2.63 0 00-2.72-3.3h-15.34l-.26 1.28c1.4.47 2 1.16 1.95 2.45a4.46 4.46 0 01-.17 1.28s-13.74 53.89-13.75 53.89a2.63 2.63 0 002.72 3.31h15.3l.35-1.25c-1.5-.49-2.08-1.18-2.05-2.46a23.42 23.42 0 01.64-3.38s8.37-31.85 8.64-33c2-8.27 4.34-9.27 8.68-9.81a22.56 22.56 0 013.12-.13c4.37 0 5.57 2.56 5 5.59-.35 1.72-10.49 41.14-10.49 41.14a2.62 2.62 0 002.71 3.31h15.3l.36-1.27c-1.38-.49-2.08-1.18-2-2.46a19.79 19.79 0 01.64-3.38l8.64-33c2.22-8.23 4.38-9.27 8.76-9.81a23 23 0 013.15-.13c4.41 0 5.63 2.56 5 5.59-.1.52-10.4 41.14-10.41 41.14a2.63 2.63 0 002.72 3.31h15.28l.31-1.25c-1.5-.49-2.08-1.18-2.06-2.46a22.46 22.46 0 01.65-3.38s9.86-39.62 10.71-43.16c.91-3.82.82-12.44-11-12.44" fill="#333" fill-rule="evenodd"/><path d="M126.82 120.07a4.67 4.67 0 00-.11 1c0 2.25 1.75 2.78 4.07 2.78.63 0 1 0 1.72-.08l-.45 2.48a11.65 11.65 0 01-2.09.19c-3.07 0-6.13-1.09-6.13-5A7.6 7.6 0 01124 120l1.64-9.35h-4.55l.67-2.59h4.33l.94-5.34h2.87l-.9 5.38h5.65l-.74 2.59h-5.4zm26.59-6.38a10.77 10.77 0 01-.22 2l-1.79 10.33h-2.88l1.83-10.41a8 8 0 00.19-1.54c0-2.4-1.57-3.79-4-3.79a5.26 5.26 0 00-5.38 4.51l-1.94 11.23h-2.88l4.9-28.17h2.87l-2 11.76a7.39 7.39 0 015.11-2c3.78.07 6.19 2.55 6.19 6.08zm19.52 4.31h-14.31c.23 3.57 2.69 5.78 6.35 5.78a8.35 8.35 0 005.61-2.21l1.45 2a10.6 10.6 0 01-7.32 2.93 8.67 8.67 0 01-9-8.79 10 10 0 019.86-10c4.49 0 7.85 3.08 7.85 7.59a8.17 8.17 0 01-.49 2.7zm-14.05-2.55h11.58v-.34c0-3.12-2.2-4.77-5.08-4.77a6.65 6.65 0 00-6.5 5.12zm49.34.87c0 4.81-3.51 10.14-9.75 10.14a7.64 7.64 0 01-7-3.72l-1.75 10.06h-2.88l4.34-24.7h2.69l-.45 2.55a8.55 8.55 0 016.61-3c4.9.03 8.19 3.98 8.19 8.67zm-2.95.26a5.94 5.94 0 00-6.05-6.23c-4.56 0-6.88 4.32-6.88 7.66a5.63 5.63 0 005.94 5.78 7.11 7.11 0 006.99-7.21zm22.07-2.93a10.88 10.88 0 01-.18 1.88l-1.83 10.52h-2.69l.33-1.88a8.69 8.69 0 01-5.94 2.29c-3 0-6.05-1.47-6.05-4.85 0-2.7 2-5.4 7.44-5.4h5.75l.11-.6a10.25 10.25 0 00.15-1.58c0-2.52-1.76-3.64-4.22-3.64a7.69 7.69 0 00-5.31 2.29l-1.42-2.14a10.39 10.39 0 017.1-2.82c3.74 0 6.76 1.84 6.76 5.93zm-3.84 6.2l.22-1.24h-5.3c-3.25 0-4.49 1-4.49 2.7 0 2.07 2 2.78 3.78 2.78 2.95 0 5.37-1.95 5.79-4.24zm20.65-11.68l-.45 2.48a10 10 0 00-1.64-.15 5.94 5.94 0 00-6 5.14l-1.79 10.41h-2.87l3.13-18h2.69l-.33 2a7.49 7.49 0 015.38-2.18 5.47 5.47 0 011.88.3zm18.71 3.83l-2.2 1.47a6.3 6.3 0 00-5.49-3.16 7.1 7.1 0 00-7.1 7.17 6.09 6.09 0 006.2 6.35 7.12 7.12 0 005.53-2.63l1.87 1.61a9.35 9.35 0 01-7.51 3.65 8.72 8.72 0 01-9-8.83 10.06 10.06 0 0110.12-9.95 8.5 8.5 0 017.58 4.32zm20.4 6H269c.23 3.57 2.69 5.78 6.35 5.78a8.35 8.35 0 005.61-2.21l1.45 2a10.6 10.6 0 01-7.32 2.93 8.67 8.67 0 01-9-8.79 10 10 0 019.86-10c4.48 0 7.85 3.08 7.85 7.59a8.17 8.17 0 01-.54 2.7zm-14.05-2.55h11.58v-.34c0-3.12-2.2-4.77-5.08-4.77a6.65 6.65 0 00-6.5 5.12zm20.58 10.6h-2.87l4.93-28.17h2.87zm36.95-9.73c0 4.81-3.52 10.14-9.75 10.14a7.64 7.64 0 01-7-3.72l-1.75 10.06h-2.88l4.33-24.7h2.69l-.45 2.55a8.57 8.57 0 016.62-3c4.9.03 8.19 3.98 8.19 8.67zm-2.95.26a5.94 5.94 0 00-6.06-6.23c-4.55 0-6.87 4.32-6.87 7.66a5.63 5.63 0 005.94 5.78 7.11 7.11 0 006.99-7.21zm23.86 1.42h-14.3c.22 3.57 2.69 5.78 6.35 5.78a8.32 8.32 0 005.6-2.21l1.46 2a10.62 10.62 0 01-7.32 2.93 8.67 8.67 0 01-9-8.79 10 10 0 019.86-10c4.48 0 7.84 3.08 7.84 7.59a7.92 7.92 0 01-.49 2.7zm-14-2.55h11.58v-.34c0-3.12-2.21-4.77-5.08-4.77a6.63 6.63 0 00-6.54 5.12zm37.05 1.17a10.07 10.07 0 01-10.16 9.84 8.76 8.76 0 01-9-8.9 10 10 0 0110.08-9.88 8.86 8.86 0 019.08 8.94zm-16.21.94a6 6 0 006.16 6.23 7.08 7.08 0 007.1-7.1 6.12 6.12 0 00-6.24-6.34 7.12 7.12 0 00-7.02 7.21zm39.85-1.24c0 4.81-3.51 10.14-9.75 10.14a7.63 7.63 0 01-7-3.72l-1.76 10.06H373l4.33-24.7H380l-.45 2.55a8.57 8.57 0 016.61-3c4.9.03 8.18 3.98 8.18 8.67zm-2.95.26a5.94 5.94 0 00-6.05-6.23c-4.56 0-6.87 4.32-6.87 7.66a5.63 5.63 0 005.94 5.78 7.11 7.11 0 006.98-7.21zm9.26 9.47h-2.87l4.93-28.17h2.87zm23.8-8.05h-14.31c.23 3.57 2.69 5.78 6.35 5.78a8.31 8.31 0 005.6-2.21l1.46 2a10.6 10.6 0 01-7.32 2.93 8.67 8.67 0 01-9-8.79 10 10 0 019.86-10c4.48 0 7.85 3.08 7.85 7.59a8.17 8.17 0 01-.49 2.7zm-14.05-2.55H422v-.34c0-3.12-2.2-4.77-5.08-4.77a6.64 6.64 0 00-6.52 5.12z" fill="#4d4d4d"/></svg>