<svg width="25" height="25" xmlns="http://www.w3.org/2000/svg"><path d="M11.25 8.73V6.21h2.46v2.52h-2.46zm1.23 13.77c1.8 0 3.48-.46 5.04-1.38a9.716 9.716 0 003.6-3.6 9.752 9.752 0 001.38-5.04c0-1.8-.46-3.48-1.38-5.04a9.716 9.716 0 00-3.6-3.6 9.752 9.752 0 00-5.04-1.38c-1.8 0-3.48.46-5.04 1.38a9.716 9.716 0 00-3.6 3.6 9.752 9.752 0 00-1.38 5.04c0 1.8.46 3.48 1.38 5.04a9.716 9.716 0 003.6 3.6c1.56.92 3.24 1.38 5.04 1.38zm0-22.5c2.28 0 4.39.57 6.33 1.71 1.88 1.08 3.36 2.56 4.44 4.44 1.14 1.94 1.71 4.05 1.71 6.33 0 2.28-.57 4.39-1.71 6.33a11.828 11.828 0 01-4.44 4.44c-1.94 1.14-4.05 1.71-6.33 1.71-2.28 0-4.39-.57-6.33-1.71-1.88-1.1-3.36-2.59-4.44-4.47A12.219 12.219 0 010 12.48c0-2.26.57-4.36 1.71-6.3C2.81 4.3 4.3 2.81 6.18 1.71 8.12.57 10.22 0 12.48 0zm-1.23 18.75v-7.5h2.46v7.5h-2.46z" fill="#9EB2C2"/></svg>