<svg width="30" height="28" xmlns="http://www.w3.org/2000/svg"><g fill="#2882BE" fill-rule="evenodd"><path d="M20.3 1.813v-.146H6.7V5H5V1.667C5 .747 5.762 0 6.7 0h13.6c.615 0 1.152.32 1.451.798A7.017 7.017 0 0020.3 1.813zM28 13.326V17.5a1.75 1.75 0 01-1.75 1.75h-3.5v7A1.75 1.75 0 0121 28H7a1.75 1.75 0 01-1.75-1.75v-7h-3.5A1.75 1.75 0 010 17.5V8.75C0 7.784.785 7 1.75 7H18a7 7 0 0010 6.326zM21 26.25V14H7v12.25h14z" fill-rule="nonzero"/><path fill-rule="nonzero" d="M9 16h7v2H9zm0 3h10v2H9zm0 4h10v2H9z"/><path d="M25 12a5 5 0 110-10 5 5 0 010 10zm-3-7l2 2-2 2 1 1 2-2 2 2 1-1-2-2 2-2-1-1-2 2-2-2-1 1z"/></g></svg>