<svg xmlns="http://www.w3.org/2000/svg" viewBox="0 0 626 750.6"><path d="M618.1 144.6s-62.3-4.2-94.9-35.6c-34.1-32.8-38.5-92.9-38.5-92.9S400 0 313.8 0c-84.7 0-170.9 16.1-170.9 16.1s-5.7 60.4-38.1 91.6c-34.3 33.1-95.3 36.9-95.3 36.9S3 262.3 12.3 364.5c9.2 100.5 32.8 200 120.2 275.3C204 701.4 311 750.6 311 750.6s84-38.6 144.8-80.7c66.9-46.3 129.7-109.7 149-230.2 20.4-127.5 13.3-295.1 13.3-295.1zM431.3 619.2c-40.4 28-93.2 54.1-112.4 63.3V372.8H64.7c-.2-2.1-.4-4.3-.6-6.4-7.7-84.6-2.3-182.1-2.3-182.1s50.5-3.2 78.9-30.6c26.8-25.8 31.5-75.8 31.5-75.8s71.4-13.3 141.5-13.3h5.2v308.2l242.5.4c-1.7 18.8-3.9 37.6-6.7 55.3-16 99.9-68 152.3-123.4 190.7z" fill="#348ac4"/></svg>