<svg width="227" height="92" xmlns="http://www.w3.org/2000/svg" xmlns:xlink="http://www.w3.org/1999/xlink"><defs><path id="a" d="M0 .205h164.01V52.94H0z"/><path id="c" d="M0 .205h164.01V52.94H0z"/></defs><g fill="none" fill-rule="evenodd"><path d="M60.802 36.761v-1.217c0-14.308-8.37-23.106-20.604-23.106-5.223 0-10.302 2.145-14.166 6.009-3.791 3.791-5.864 8.728-5.864 14.093 0 5.434 1.931 10.302 5.649 14.235 3.937 4.151 8.659 6.153 14.523 6.153 8.588 0 14.955-4.077 18.673-12.091H46.565c-1.718 1.503-3.577 2.147-5.866 2.147-4.936 0-7.87-2.147-8.871-6.223h28.974zm-11.375-8.015H31.47c.787-3.647 4.152-6.08 8.87-6.08 4.507 0 7.727 2.147 9.087 6.08z" fill="#FFFFFE"/><mask id="b" fill="#fff"><use xlink:href="#a"/></mask><path d="M103.576 36.761v-1.217c0-14.308-8.371-23.106-20.605-23.106-5.221 0-10.302 2.145-14.166 6.009-3.791 3.791-5.865 8.728-5.865 14.093 0 5.434 1.933 10.302 5.651 14.235 3.936 4.151 8.658 6.153 14.524 6.153 8.585 0 14.953-4.077 18.673-12.091h-12.45c-1.716 1.503-3.576 2.147-5.865 2.147-4.936 0-7.871-2.147-8.872-6.223h28.975zm-11.375-8.015H74.244c.786-3.647 4.149-6.08 8.871-6.08 4.507 0 7.725 2.147 9.086 6.08zm-88.052-6.58v29.831h11.09V22.166h4.507v-8.585h-4.507v-.93c0-3.505.786-4.65 4.22-4.65h.287V.274c-.644 0-1.218-.07-1.789-.07-9.443 0-13.881 3.72-13.881 11.946 0 .43.073.931.073 1.431H0v8.585h4.149m103.719 0v29.831h11.09V22.166h4.505v-8.585h-4.505v-.93c0-3.505.787-4.65 4.221-4.65h.284V.274c-.642 0-1.216-.07-1.789-.07-9.442 0-13.877 3.72-13.877 11.946 0 .43.071.931.071 1.431h-4.149v8.585h4.149M164.01 32.54c0-5.224-2.217-10.517-6.294-14.379-3.863-3.649-8.655-5.581-14.238-5.581-5.221 0-10.3 2.147-14.165 6.009-3.791 3.791-5.864 8.727-5.864 14.092 0 5.366 1.93 10.305 5.651 14.166 3.936 4.152 8.656 6.153 14.523 6.153 5.794 0 10.659-2.074 14.595-6.008 3.863-3.865 5.792-8.657 5.792-14.452m-11.23.284c0 5.223-4.079 9.445-9.084 9.445-4.938 0-9.088-4.222-9.088-9.445 0-5.292 4.079-9.515 9.088-9.515 5.005 0 9.084 4.223 9.084 9.515" fill="#FFFFFE" mask="url(#b)"/><path d="M181.361 26.3c-5.442-.332-9.818-4.701-10.121-10.151h23.799v-.26c0-9.347-5.973-15.576-14.228-15.576-8.723 0-14.641 6.387-14.641 14.694 0 7.841 6.125 14.746 14.486 14.746 6.075 0 10.905-3.375 13.502-9.606h-2.404a10.78 10.78 0 01-10.393 6.153m30.216 0c5.443-.332 9.819-4.701 10.124-10.151h-23.802v-.26c0-9.347 5.973-15.576 14.23-15.576 8.721 0 14.643 6.387 14.643 14.694 0 7.841-6.127 14.746-14.489 14.746-6.075 0-10.904-3.375-13.501-9.606h2.405a10.782 10.782 0 0010.39 6.153" fill="#F4D920"/><path fill="#298BC1" d="M19.002 57l5.56 11.52L37 70.368l-9 8.966L30.126 92l-11.123-5.98L7.875 92 10 79.334l-9-8.966 12.439-1.848L19.002 57m46.996 0l5.563 11.52L84 70.368l-9.003 8.966L77.125 92l-11.127-5.98L54.875 92 57 79.334l-9-8.966 12.435-1.848L65.998 57m47 0l5.563 11.52L131 70.368l-9 8.966L124.126 92l-11.127-5.98L101.875 92 104 79.334l-9-8.966 12.439-1.848 5.56-11.52M160 57l5.56 11.52L178 70.368l-9.002 8.966L171.126 92 160 86.02 148.874 92l2.124-12.666L142 70.368l12.437-1.848L160 57m48.002 0l5.563 11.52L226 70.368l-9 8.966L219.126 92l-11.123-5.98L196.875 92 199 79.334l-9-8.966 12.435-1.848L208.002 57"/><mask id="d" fill="#fff"><use xlink:href="#c"/></mask><path d="M103.576 36.761v-1.217c0-14.308-8.371-23.106-20.605-23.106-5.221 0-10.302 2.145-14.166 6.009-3.791 3.791-5.865 8.728-5.865 14.093 0 5.434 1.933 10.302 5.651 14.235 3.936 4.151 8.658 6.153 14.524 6.153 8.585 0 14.953-4.077 18.673-12.091h-12.45c-1.716 1.503-3.576 2.147-5.865 2.147-4.936 0-7.871-2.147-8.872-6.223h28.975zm-11.375-8.015H74.244c.786-3.647 4.149-6.08 8.871-6.08 4.507 0 7.725 2.147 9.086 6.08zm-88.052-6.58v29.831h11.09V22.166h4.507v-8.585h-4.507v-.93c0-3.505.786-4.65 4.22-4.65h.287V.274c-.644 0-1.218-.07-1.789-.07-9.443 0-13.881 3.72-13.881 11.946 0 .43.073.931.073 1.431H0v8.585h4.149m103.719 0v29.831h11.09V22.166h4.505v-8.585h-4.505v-.93c0-3.505.787-4.65 4.221-4.65h.284V.274c-.642 0-1.216-.07-1.789-.07-9.442 0-13.877 3.72-13.877 11.946 0 .43.071.931.071 1.431h-4.149v8.585h4.149M164.01 32.54c0-5.224-2.217-10.517-6.294-14.379-3.863-3.649-8.655-5.581-14.238-5.581-5.221 0-10.3 2.147-14.165 6.009-3.791 3.791-5.864 8.727-5.864 14.092 0 5.366 1.93 10.305 5.651 14.166 3.936 4.152 8.656 6.153 14.523 6.153 5.794 0 10.659-2.074 14.595-6.008 3.863-3.865 5.792-8.657 5.792-14.452m-11.23.284c0 5.223-4.079 9.445-9.084 9.445-4.938 0-9.088-4.222-9.088-9.445 0-5.292 4.079-9.515 9.088-9.515 5.005 0 9.084 4.223 9.084 9.515m-92.146 3.499v-1.217C60.634 20.798 52.264 12 40.03 12c-5.223 0-10.302 2.145-14.166 6.009C22.073 21.8 20 26.737 20 32.102c0 5.434 1.931 10.302 5.649 14.235 3.937 4.151 8.659 6.153 14.523 6.153 8.588 0 14.955-4.077 18.673-12.091H46.397c-1.718 1.503-3.577 2.147-5.866 2.147-4.936 0-7.87-2.147-8.871-6.223h28.974zm-11.375-8.015H31.302c.787-3.647 4.152-6.08 8.87-6.08 4.507 0 7.727 2.147 9.087 6.08z" fill="#3B3C3A" mask="url(#d)"/></g></svg>