<svg xmlns="http://www.w3.org/2000/svg" viewBox="0 0 530.9 530.9"><path d="M528.5 462.1L421.2 163.8c-17.1-40-37.4-61.7-76.8-61.7h-3.9c1.4-5.7 2.2-11.7 2.2-17.9 0-42.6-34.6-77.2-77.2-77.2-42.5 0-77.2 34.6-77.2 77.2 0 6.2.8 12.1 2.2 17.9h-9.2c-39.5 0-55.5 29.4-66.1 61.7L4.3 462.1c-19.7 54 32 61.7 71.5 61.7H457c39.5 0 85.2-14.9 71.5-61.7zM224 84.3c0-22.8 18.6-41.4 41.4-41.4 22.9 0 41.4 18.6 41.4 41.4 0 6.4-1.5 12.4-4.1 17.9H228c-2.5-5.5-4-11.5-4-17.9z" fill="#348ac4"/><path d="M153 249.8h30v59.3h.6c3-5.2 6.2-9.9 9.1-14.7l30.4-44.5h37.2L216 307l46.7 77h-35.4l-32.7-58-11.6 14.1v43.8h-30V249.8zm227.5 127.9c-9.3 3.2-27 7.6-44.7 7.6-24.5 0-42.2-6.2-54.5-18.1-12.3-11.5-19.1-29-18.9-48.7.2-44.5 32.6-70 76.6-70 17.3 0 30.6 3.4 37.2 6.6l-6.4 24.3c-7.4-3.2-16.5-5.8-31.2-5.8-25.3 0-44.3 14.3-44.3 43.4 0 27.6 17.3 44 42.2 44 7 0 12.5-.8 14.9-2v-28h-20.7v-23.7h49.9v70.4z" fill="#fff"/></svg>