<svg version="1.1" id="Layer_1" xmlns="http://www.w3.org/2000/svg" x="0" y="0" viewBox="0 0 74.5 88.4" xml:space="preserve"><style>.st29{fill:#cb7a17}</style><path d="M37.2 0C22.6 0 10.6 2.8 0 8.4v43.4c0 9.3 3.5 17 10.1 22.4 6 4.9 25 13.2 27.1 14.2 2.2-.9 21.2-9.3 27.2-14.2C71 68.8 74.5 61 74.5 51.8V8.4C63.9 2.8 51.8 0 37.2 0z" fill="#300"/><path d="M30.8 7c.3.2.6.3 1 .3.5 0 .8-.3.8-.7s-.2-.6-.7-.8-1.1-.5-1.1-1.2.6-1.2 1.2-1.1h.1c.3 0 .6.1.9.2l-.2.4c-.2-.1-.5-.2-.8-.2-.6 0-.8.3-.8.6s.3.6.8.8 1 .6 1 1.2-.4 1.2-1.3 1.2c-.4 0-.7-.1-1-.3l.1-.4zm3-1.5v-.8h.5v.5c.2-.3.5-.6.9-.5.4 0 .7.2.8.6.1-.2.2-.3.3-.4.2-.1.4-.2.7-.2.4 0 1 .3 1 1.3v1.7h-.5V6c0-.6-.2-.9-.6-.9-.3 0-.5.2-.6.5v2.1h-.5V5.9c0-.5-.2-.8-.6-.8-.3 0-.6.2-.7.5v2.1H34V5.5zm6.7 2.1v-.3c-.2.3-.5.4-.9.4-.5 0-.9-.3-.9-.8v-.1c0-.7.6-1.1 1.8-1.1 0-.3-.2-.6-.5-.7h-.1c-.3 0-.5.1-.8.2l-.1-.3c.3-.2.6-.3 1-.3.9 0 1.1.6 1.1 1.2v1.8h-.6zm0-1.5c-.6 0-1.2.1-1.2.7 0 .3.2.5.4.5h.1c.3 0 .6-.2.7-.5v-.7zm1.3-2.8h.5v4.3h-.5V3.3zm1.5 0h.5v4.3h-.5V3.3z" fill="none"/><radialGradient id="SVGID_1_" cx="7614.892" cy="881.955" r="232.39" gradientTransform="matrix(0 .52 .26 0 -217.285 -3955.93)" gradientUnits="userSpaceOnUse"><stop offset="0" stop-color="#ffdc00"/><stop offset=".35" stop-color="#ffbe00"/><stop offset="1" stop-color="#c86e14"/></radialGradient><path d="M37.2 87.6c2.2-.9 20.8-9.1 26.7-13.9 6.4-5.3 9.8-12.8 9.8-21.8v-43C63.6 3.5 51.3.8 37.3.8S10.9 3.5.8 8.9v43c0 9 3.4 16.6 9.8 21.8 5.8 4.8 24.5 13 26.6 13.9z" fill="url(#SVGID_1_)"/><path d="M60.5 82.7v3.7h.7v-1.6h.1l1 1.6h.8s-1-1.5-1.1-1.6c.5-.1.8-.5.8-1 0-.6-.5-1.1-1.1-1.1h-1.2zm1 .5c.6 0 .7.3.7.5s-.2.6-.9.6h-.1v-1.1h.3zm2.7 1.4c0 1.4-1.1 2.5-2.5 2.5s-2.5-1.1-2.5-2.5 1.1-2.5 2.5-2.5c1.3-.1 2.5 1.1 2.5 2.5m-2.6-3.1c-1.7 0-3.1 1.4-3.1 3.1s1.4 3.1 3.1 3.1 3.1-1.4 3.1-3.1c0-1.7-1.4-3.1-3.1-3.1" fill="#c86e14"/><radialGradient id="SVGID_2_" cx="-164.697" cy="885.831" r="137.07" gradientTransform="matrix(0 .88 .44 0 -377.632 160.38)" gradientUnits="userSpaceOnUse"><stop offset="0" stop-color="#5c3333"/><stop offset=".35" stop-color="#471919"/><stop offset=".85" stop-color="#300"/></radialGradient><path d="M4.1 27.2C19.8 12.9 38.8 9.1 56.4 9.1c4.8 0 9.4.3 14 .7v42c0 8.1-2.9 14.6-8.6 19.3-5.1 4.1-20.3 11-24.6 12.9-4.3-1.9-19.6-8.8-24.5-12.9-5.6-4.6-8.6-11.3-8.6-19.3V27.2zm3.3 22c0 6.7 3.2 10.1 9.5 10.1 3.4.1 6.7-.8 9.6-2.5V29.3H20v23.9c-.9.6-1.9.8-3 .8-2.9 0-3.3-2.7-3.3-4.5V29.3H7.4v19.9M36 58.9c.9.3 1.9.4 2.8.4 7 0 11.1-6.3 11.1-15.6s-4.2-15-11.7-15c-3-.1-6 .7-8.5 2.3v41.4H36V58.9zm0-5.2c.7.2 1.4.4 2.1.4 3.7 0 5.4-3.3 5.4-10.3 0-7.1-1.5-10-5.2-10-.8 0-1.5.1-2.3.5v19.4zm15.4-16.8c0 3.4.9 5.9 6.2 9 2.8 1.6 3.9 2.7 4 4.7 0 2.2-1.5 3.5-3.8 3.5-2.3-.2-4.4-1.1-6.1-2.6v5.8c2.1 1.3 4.5 2 7 2 6.3 0 9.1-4.4 9.2-8.5.1-3.7-.9-6.5-6.2-9.6-2.4-1.4-4.2-2.3-4.2-4.6s1.9-3 3.7-3c2.1.1 4.1 1 5.6 2.5v-5.5c-2-1.5-4.5-2.2-7-2.1-4.1.3-8.5 3.3-8.4 8.4" fill="url(#SVGID_2_)"/><radialGradient id="SVGID_3_" cx="3.925" cy="543.642" r="124.08" gradientTransform="matrix(0 .97 .68 0 -357.683 11.932)" gradientUnits="userSpaceOnUse"><stop offset="0" stop-color="#ffdc00"/><stop offset=".35" stop-color="#ffbe00"/><stop offset="1" stop-color="#c86e14"/></radialGradient><path d="M61.5 50.6c0-2-1.2-3.1-4-4.7-5.2-3.1-6.2-5.6-6.2-9 0-5.1 4.3-8.2 8.5-8.3 2.5-.1 5 .6 7 2.1v5.5c-1.5-1.6-3.5-2.5-5.7-2.6-1.8 0-3.7.8-3.7 3s1.8 3.2 4.2 4.6c5.3 3.1 6.3 5.9 6.2 9.6-.1 4.1-2.9 8.5-9.2 8.5-2.5 0-4.9-.7-7-2v-5.7c1.7 1.5 3.8 2.5 6.1 2.6 2.3 0 3.9-1.4 3.8-3.6zM26.4 29.3H20v23.9c-.9.6-1.9.8-3 .8-2.9 0-3.3-2.7-3.3-4.5V29.3H7.4v20c0 6.7 3.2 10.1 9.5 10.1 3.4.1 6.7-.8 9.6-2.5V29.3zM36 58.9v13.4h-6.4V30.9c2.6-1.6 5.5-2.4 8.5-2.3 7.6 0 11.7 5.7 11.7 15s-4 15.6-11.1 15.6c-.8.1-1.8 0-2.7-.3zm0-5.2c.7.2 1.4.4 2.1.4 3.7 0 5.4-3.3 5.4-10.3 0-7.1-1.5-10-5.2-10-.8 0-1.5.1-2.3.5v19.4z" fill="url(#SVGID_3_)"/><linearGradient id="SVGID_4_" gradientUnits="userSpaceOnUse" x1="34.646" y1="3.794" x2="1.452" y2="35.848" gradientTransform="matrix(1 0 0 -1 0 90.42)"><stop offset="0" stop-color="#b76e11"/><stop offset=".16" stop-color="#c27514"/><stop offset=".38" stop-color="#c97916"/><stop offset="1" stop-color="#cb7a17"/></linearGradient><path d="M4.1 51.8c0 8 3 14.7 8.6 19.3 5 4 20.2 11 24.5 12.9v-.5C33.7 81.9 18 74.8 13 70.7c-5.5-4.5-8.4-11-8.4-18.9h-.5z" fill="url(#SVGID_4_)"/><linearGradient id="SVGID_5_" gradientUnits="userSpaceOnUse" x1="39.821" y1="3.808" x2="72.989" y2="35.847" gradientTransform="matrix(1 0 0 -1 0 90.42)"><stop offset="0" stop-color="#ffc10e"/><stop offset="1" stop-color="#d99814"/></linearGradient><path d="M37.2 83.9C41.5 82 56.7 75.2 61.7 71c5.7-4.7 8.6-11.2 8.6-19.3h-.4c0 7.9-2.8 14.3-8.4 18.9-4.9 4-19.6 10.6-24.3 12.7v.6z" fill="url(#SVGID_5_)"/><linearGradient id="SVGID_6_" gradientUnits="userSpaceOnUse" x1="4.141" y1="63.081" x2="68.707" y2="85.567" gradientTransform="matrix(1 0 0 -1 0 90.42)"><stop offset="0" stop-color="#e39f15"/><stop offset=".97" stop-color="#8d4a02"/></linearGradient><path d="M69.9 10.2c-4.8-.4-9.3-.7-13.5-.7-21.7 0-38.7 5.8-51.8 17.9l-.5-.2C19.8 12.9 38.8 9.1 56.4 9.1c4.8 0 9.4.3 14 .7l-.5.4z" fill="url(#SVGID_6_)"/><linearGradient id="SVGID_7_" gradientUnits="userSpaceOnUse" x1="39.07" y1="35.787" x2="44.291" y2="46.167" gradientTransform="matrix(1 0 0 -1 0 90.42)"><stop offset=".05" stop-color="#ffd300"/><stop offset=".95" stop-color="#b76e11"/></linearGradient><path d="M38 54.1c3.7 0 5.4-3.3 5.4-10.3H43c0 5.6-1.1 9.8-4.9 9.8v.5z" fill="url(#SVGID_7_)"/><linearGradient id="SVGID_8_" gradientUnits="userSpaceOnUse" x1="38.079" y1="36.53" x2="35.999" y2="36.79" gradientTransform="matrix(1 0 0 -1 0 90.42)"><stop offset=".05" stop-color="#ffd300"/><stop offset=".95" stop-color="#efaf13"/></linearGradient><path d="M38 53.7c-.5 0-1.1-.1-1.6-.3l-.4.3c.7.2 1.4.4 2.1.4v-.4z" fill="url(#SVGID_8_)"/><linearGradient id="SVGID_9_" gradientUnits="userSpaceOnUse" x1="36.049" y1="55.943" x2="38.269" y2="56.523" gradientTransform="matrix(1 0 0 -1 0 90.42)"><stop offset=".05" stop-color="#a15c0a"/><stop offset=".95" stop-color="#8d4a02"/></linearGradient><path d="M36.4 34.5c.6-.2 1.2-.3 1.8-.3v-.5c-.8 0-1.5.1-2.3.5l.5.3z" fill="url(#SVGID_9_)"/><linearGradient id="SVGID_10_" gradientUnits="userSpaceOnUse" x1="44.331" y1="47.04" x2="39.211" y2="57.14" gradientTransform="matrix(1 0 0 -1 0 90.42)"><stop offset=".05" stop-color="#b76e11"/><stop offset=".95" stop-color="#8d4a02"/></linearGradient><path d="M43 43.8c0-6.1-1-9.6-4.8-9.6v-.5c3.7 0 5.2 2.9 5.2 10l-.4.1z" fill="url(#SVGID_10_)"/><linearGradient id="SVGID_11_" gradientUnits="userSpaceOnUse" x1="59.36" y1="62.779" x2="50.08" y2="54.399" gradientTransform="matrix(1 0 0 -1 0 90.42)"><stop offset=".05" stop-color="#ffca05"/><stop offset=".95" stop-color="#c07414"/></linearGradient><path d="M50.9 36.9c0-5.2 4.3-8.6 9-8.7v.5c-4.2.1-8.5 3.1-8.5 8.3h-.5z" fill="url(#SVGID_11_)"/><linearGradient id="SVGID_12_" gradientUnits="userSpaceOnUse" x1="57.241" y1="53.96" x2="60.871" y2="57.12" gradientTransform="matrix(1 0 0 -1 0 90.42)"><stop offset=".05" stop-color="#a2610a"/><stop offset=".95" stop-color="#8d4a02"/></linearGradient><path d="M61.2 33.6c-1.8 0-3.7.8-3.7 3h.5c0-.6.3-2.6 3.2-2.6v-.4z" fill="url(#SVGID_12_)"/><linearGradient id="SVGID_13_" gradientUnits="userSpaceOnUse" x1="67.606" y1="53.632" x2="61.248" y2="56.941" gradientTransform="matrix(1 0 0 -1 0 90.42)"><stop offset="0" stop-color="#e29618"/><stop offset=".95" stop-color="#8d4a02"/></linearGradient><path d="M66.8 36.2c-1.5-1.6-3.5-2.5-5.7-2.6v.4c2.4.2 4.7 1.4 6.2 3.3l-.5-1.1z" fill="url(#SVGID_13_)"/><linearGradient id="SVGID_14_" gradientUnits="userSpaceOnUse" x1="59.92" y1="62.35" x2="67.32" y2="59.96" gradientTransform="matrix(1 0 0 -1 0 90.42)"><stop offset=".05" stop-color="#ffca05"/><stop offset=".95" stop-color="#ec9d00"/></linearGradient><path d="M67.3 30.5l-.5.2c-2-1.5-4.5-2.2-7-2.1v-.5c2.7 0 5.4.8 7.5 2.4z" fill="url(#SVGID_14_)"/><linearGradient id="SVGID_15_" gradientUnits="userSpaceOnUse" x1="68.958" y1="38.797" x2="59.57" y2="29.61" gradientTransform="matrix(1 0 0 -1 0 90.42)"><stop offset=".05" stop-color="#975006"/><stop offset=".95" stop-color="#8d4a02"/></linearGradient><path d="M67.8 50.9c-.1 4.1-2.9 8.5-9.2 8.5v.5c5.8 0 9.5-3.8 9.6-8.9l-.4-.1z" fill="url(#SVGID_15_)"/><linearGradient id="SVGID_16_" gradientUnits="userSpaceOnUse" x1="51.164" y1="32.651" x2="58.605" y2="30.511" gradientTransform="matrix(1 0 0 -1 0 90.42)"><stop offset="0" stop-color="#975006"/><stop offset=".95" stop-color="#8d4a02"/></linearGradient><path d="M51.7 57.4c2.1 1.3 4.5 2 7 2v.5c-2.6 0-5.2-.8-7.4-2.2l.4-.3z" fill="url(#SVGID_16_)"/><linearGradient id="SVGID_17_" gradientUnits="userSpaceOnUse" x1="57.644" y1="36.108" x2="50.944" y2="39.358" gradientTransform="matrix(1 0 0 -1 0 90.42)"><stop offset=".05" stop-color="#ffd300"/><stop offset="1" stop-color="#efaf13"/></linearGradient><path d="M57.8 54.2c-2.3-.2-4.4-1.1-6.1-2.6l-.5-1a10 10 0 006.5 3.1v.5z" fill="url(#SVGID_17_)"/><linearGradient id="SVGID_18_" gradientUnits="userSpaceOnUse" x1="58.025" y1="35.923" x2="61.845" y2="39.433" gradientTransform="matrix(1 0 0 -1 0 90.42)"><stop offset=".05" stop-color="#ffd300"/><stop offset=".95" stop-color="#e5a812"/></linearGradient><path d="M61.5 50.6c.1 2.2-1.5 3.6-3.8 3.6v-.5c2 0 3.4-1 3.3-3.1h.5z" fill="url(#SVGID_18_)"/><linearGradient id="SVGID_19_" gradientUnits="userSpaceOnUse" x1="50.827" y1="53.415" x2="60.687" y2="39.215" gradientTransform="matrix(1 0 0 -1 0 90.42)"><stop offset="0" stop-color="#c07414"/><stop offset=".4" stop-color="#a15c0a"/><stop offset=".6" stop-color="#a15c0a"/><stop offset="1" stop-color="#e5a812"/></linearGradient><path d="M61.1 50.6c0-1.7-.9-2.7-3.7-4.3-5.3-3.1-6.4-5.8-6.4-9.4h.4c0 3.4.9 5.9 6.2 9 2.8 1.6 3.9 2.7 4 4.7h-.5z" fill="url(#SVGID_19_)"/><linearGradient id="SVGID_20_" gradientUnits="userSpaceOnUse" x1="58.184" y1="54.312" x2="68.749" y2="39.88" gradientTransform="matrix(1 0 0 -1 0 90.42)"><stop offset="0" stop-color="#a2610a"/><stop offset=".4" stop-color="#f1b70f"/><stop offset=".6" stop-color="#f1b70f"/><stop offset=".95" stop-color="#975006"/></linearGradient><path d="M61.8 40.9c5.5 3.3 6.6 6.2 6.4 10h-.4c.1-3.7-.9-6.5-6.2-9.6-2.4-1.4-4.2-2.3-4.2-4.6h.5c-.1 2.1 1.7 2.8 3.9 4.2" fill="url(#SVGID_20_)"/><path fill="#8d4a02" d="M36 72.3h-6.4l-.4.5h7.2z"/><linearGradient id="SVGID_21_" gradientUnits="userSpaceOnUse" x1="35.949" y1="31.275" x2="38.869" y2="30.825" gradientTransform="matrix(1 0 0 -1 0 90.42)"><stop offset=".05" stop-color="#975006"/><stop offset=".95" stop-color="#8d4a02"/></linearGradient><path d="M38.8 59.7c-.8 0-1.6-.1-2.4-.2l-.4-.6c.9.3 1.9.4 2.8.4v.4z" fill="url(#SVGID_21_)"/><linearGradient id="SVGID_22_" gradientUnits="userSpaceOnUse" x1="51.987" y1="45.607" x2="40.471" y2="29.513" gradientTransform="matrix(1 0 0 -1 0 90.42)"><stop offset=".05" stop-color="#a15c00"/><stop offset=".95" stop-color="#8d4a02"/></linearGradient><path d="M50.4 43.7c0 8.3-3.4 16.1-11.5 16.1v-.4c7 0 11.1-6.3 11.1-15.6l.4-.1z" fill="url(#SVGID_22_)"/><linearGradient id="SVGID_23_" gradientUnits="userSpaceOnUse" x1="38.17" y1="62.29" x2="29.136" y2="59.951" gradientTransform="matrix(1 0 0 -1 0 90.42)"><stop offset=".05" stop-color="#ffd000"/><stop offset=".95" stop-color="#ec9d19"/></linearGradient><path d="M29.2 30.7c2.7-1.7 5.8-2.6 9-2.5v.5c-3-.1-6 .7-8.5 2.3l-.5-.3z" fill="url(#SVGID_23_)"/><linearGradient id="SVGID_24_" gradientUnits="userSpaceOnUse" x1="39.858" y1="63.518" x2="52.008" y2="48.018" gradientTransform="matrix(1 0 0 -1 0 90.42)"><stop offset=".05" stop-color="#ffd000"/><stop offset=".5" stop-color="#dc8c00"/><stop offset=".95" stop-color="#a85c00"/></linearGradient><path d="M38.2 28.2c8.8 0 12.2 7.3 12.2 15.5h-.5c0-9.3-4.2-15-11.7-15v-.5z" fill="url(#SVGID_24_)"/><path d="M13.8 29.3H7.4l-.5-.5h7.3l-.4.5zm12.6 0H20l-.5-.5h7.3l-.4.5z" fill="#fcb813"/><path class="st29" d="M4.1 51.8V27.3l.5.2v24.3z"/><path fill="#975006" d="M67.3 37.4v-6.9l-.5.2v5.6z"/><path class="st29" d="M14.2 49.5V28.8l-.5.5v20.2z"/><path fill="#d99814" d="M69.9 51.8V10.2l.5-.4v42z"/><path fill="#b76e11" d="M51.2 50.6v7.1l.5-.3v-5.8z"/><path d="M20 53.2V29.3l-.4-.5V53zM7.4 49.3v-20l-.5-.5v20.5z" fill="#d89016"/><linearGradient id="SVGID_25_" gradientUnits="userSpaceOnUse" x1="5.736" y1="40.078" x2="15.615" y2="29.45" gradientTransform="matrix(1 0 0 -1 0 90.42)"><stop offset=".05" stop-color="#d89016"/><stop offset=".95" stop-color="#8d4a02"/></linearGradient><path d="M16.8 59.8c-6.8 0-9.9-3.9-9.9-10.6h.5c0 6.7 3.2 10.1 9.5 10.1v.5z" fill="url(#SVGID_25_)"/><linearGradient id="SVGID_26_" gradientUnits="userSpaceOnUse" x1="26.907" y1="33.072" x2="16.847" y2="30.462" gradientTransform="matrix(1 0 0 -1 0 90.42)"><stop offset=".05" stop-color="#a15c0a"/><stop offset=".95" stop-color="#8d4a02"/></linearGradient><path d="M26.8 57.1c-3 1.9-6.5 2.9-10 2.8v-.5c3.4.1 6.7-.8 9.6-2.5l.4.2z" fill="url(#SVGID_26_)"/><linearGradient id="SVGID_27_" gradientUnits="userSpaceOnUse" x1="17.012" y1="36.526" x2="20.032" y2="37.256" gradientTransform="matrix(1 0 0 -1 0 90.42)"><stop offset=".05" stop-color="#ffd300"/><stop offset=".95" stop-color="#ffc10e"/></linearGradient><path d="M17 53.5c.9 0 1.8-.2 2.5-.6l.5.3c-.9.6-1.9.8-3 .8v-.5z" fill="url(#SVGID_27_)"/><linearGradient id="SVGID_28_" gradientUnits="userSpaceOnUse" x1="16.617" y1="36.102" x2="13.329" y2="40.609" gradientTransform="matrix(1 0 0 -1 0 90.42)"><stop offset=".05" stop-color="#ffd300"/><stop offset=".95" stop-color="#cb7a17"/></linearGradient><path d="M17 54c-2.9 0-3.3-2.7-3.3-4.5h.5c0 2.2.7 4 2.9 4v.5z" fill="url(#SVGID_28_)"/><path class="st29" d="M29.2 30.7v42.1l.4-.5V30.9z"/><path d="M36.4 53.4V34.5l-.4-.3v19.5l.4-.3zm0 6.1v13.2l-.4-.4V58.9l.4.6zm-9.6-2.4V28.8l-.4.5v27.5z" fill="#c07414"/></svg>